<?xml version="1.0" standalone="no"?>
<!DOCTYPE svg PUBLIC "-//W3C//DTD SVG 20010904//EN"
 "http://www.w3.org/TR/2001/REC-SVG-20010904/DTD/svg10.dtd">
<svg version="1.0" xmlns="http://www.w3.org/2000/svg"
 width="776.000000pt" height="238.000000pt" viewBox="0 0 776.000000 238.000000"
 preserveAspectRatio="xMidYMid meet">
<metadata>
Created by potrace 1.16, written by Peter Selinger 2001-2019
</metadata>
<g transform="translate(0.000000,238.000000) scale(0.100000,-0.100000)"
fill="#000000" stroke="none">
<path d="M960 2295 c-345 -60 -650 -288 -804 -601 -87 -177 -122 -343 -113
-547 11 -278 111 -514 301 -715 176 -186 408 -306 660 -341 472 -66 952 197
1156 632 198 422 117 908 -209 1250 -246 259 -633 384 -991 322z m750 -360 l0
-94 -414 -608 -414 -608 429 -3 429 -2 0 -115 0 -115 -590 0 -590 0 0 93 0 92
47 70 c25 39 210 310 410 603 200 293 363 535 363 537 0 3 -166 5 -370 5
l-370 0 0 120 0 120 535 0 535 0 0 -95z"/>
<path d="M2687 2023 c-4 -3 -7 -372 -7 -820 l0 -813 125 0 125 0 0 820 0 820
-118 0 c-65 0 -122 -3 -125 -7z"/>
<path d="M3460 1211 l0 -821 351 0 c285 0 363 3 422 16 243 54 394 256 374
499 -11 130 -74 256 -166 335 l-46 40 18 27 c138 217 139 415 2 562 -58 62
-121 103 -205 132 -61 21 -84 23 -407 27 l-343 4 0 -821z m712 547 c90 -42
121 -113 98 -225 -10 -47 -20 -66 -55 -99 -58 -56 -97 -64 -324 -64 l-191 0 0
211 0 210 208 -3 c200 -3 209 -4 264 -30z m15 -642 c68 -23 137 -84 159 -141
12 -34 15 -65 12 -125 -4 -69 -9 -87 -34 -122 -16 -23 -53 -54 -84 -72 l-55
-31 -242 -3 -243 -4 0 254 c0 140 2 257 4 259 2 2 100 4 218 3 174 0 222 -4
265 -18z"/>
<path d="M5000 1211 l0 -821 358 0 c391 0 433 5 540 59 161 81 252 229 252
410 0 147 -44 255 -147 359 l-63 64 40 66 c164 271 63 557 -230 654 -60 20
-91 22 -407 26 l-343 4 0 -821z m678 564 c64 -19 117 -64 133 -112 16 -51 6
-143 -23 -195 -16 -30 -37 -49 -73 -67 -48 -25 -57 -26 -257 -29 l-208 -3 0
210 0 211 188 0 c141 0 202 -4 240 -15z m52 -659 c114 -42 174 -123 174 -236
1 -115 -36 -180 -128 -228 -51 -27 -53 -27 -288 -30 l-238 -4 0 263 0 262 218
-6 c168 -3 227 -8 262 -21z"/>
<path d="M6410 2021 c0 -8 202 -380 424 -780 l96 -174 0 -339 0 -338 125 0
125 0 0 339 0 339 260 477 c143 263 260 479 260 481 0 2 -61 4 -135 4 -129 0
-135 -1 -149 -22 -8 -13 -93 -168 -189 -346 l-175 -323 -19 33 c-10 18 -95
174 -189 345 l-169 313 -132 0 c-73 0 -133 -4 -133 -9z"/>
</g>
</svg>
